M48
;DRILL file {KiCad 4.0.5} date Tue Jan 10 23:49:52 2017
;FORMAT={-:-/ absolute / inch / decimal}
FMAT,2
INCH,TZ
T1C0.024
T2C0.031
T3C0.039
%
G90
G05
M72
T1
X2.8143Y-3.8172
X2.8143Y-3.9196
X2.8143Y-4.0097
X2.8143Y-4.1243
X2.8143Y-4.2266
X2.8143Y-4.329
X2.8143Y-4.4314
X2.8143Y-4.5337
X2.8143Y-4.6361
X2.8143Y-4.7385
X2.8143Y-4.8408
X2.8143Y-4.9432
X2.8143Y-5.0455
X2.8143Y-5.1479
X2.8143Y-5.2503
X2.8143Y-5.3526
X2.8143Y-5.455
X2.8143Y-5.5574
X2.8143Y-5.6597
X2.8143Y-5.7621
X3.7198Y-3.8172
X3.7198Y-3.9196
X3.7198Y-4.0097
X3.7198Y-4.1243
X3.7198Y-4.2266
X3.7198Y-4.329
X3.7198Y-4.4314
X3.7198Y-4.5337
X3.7198Y-4.6361
X3.7198Y-4.7385
X3.7198Y-4.8408
X3.7198Y-4.9432
X3.7198Y-5.0455
X3.7198Y-5.1479
X3.7198Y-5.2503
X3.7198Y-5.3526
X3.7198Y-5.455
X3.7198Y-5.5574
X3.7198Y-5.6597
X3.7198Y-5.7621
T2
X2.6Y-3.51
X3.03Y-3.51
X3.26Y-3.88
X3.41Y-5.52
T3
X2.6Y-2.73
X2.6Y-2.83
X2.6Y-2.93
X2.6Y-3.03
X2.6Y-3.13
X2.6Y-3.23
X2.6Y-3.33
X2.98Y-3.16
X3.0666Y-3.21
X3.12Y-6.07
X3.1532Y-3.26
X3.22Y-6.07
X3.2398Y-3.31
X3.32Y-6.07
X3.3264Y-3.36
X3.413Y-3.41
X3.42Y-6.07
X3.4996Y-3.46
X3.5862Y-3.51
T0
M30
