M48
;DRILL file {KiCad 4.0.5} date Thu Jan 12 01:03:05 2017
;FORMAT={-:-/ absolute / metric / decimal}
FMAT,2
METRIC,TZ
T1C0.620
T2C0.800
T3C1.000
%
G90
G05
M71
T1
X71.483Y-96.957
X71.483Y-99.558
X71.483Y-101.846
X71.483Y-104.757
X71.483Y-107.356
X71.483Y-109.957
X71.483Y-112.558
X71.483Y-115.156
X71.483Y-117.757
X71.483Y-120.358
X71.483Y-122.956
X71.483Y-125.557
X71.483Y-128.156
X71.483Y-130.757
X71.483Y-133.358
X71.483Y-135.956
X71.483Y-138.557
X71.483Y-141.158
X71.483Y-143.756
X71.483Y-146.357
X94.483Y-96.957
X94.483Y-99.558
X94.483Y-101.846
X94.483Y-104.757
X94.483Y-107.356
X94.483Y-109.957
X94.483Y-112.558
X94.483Y-115.156
X94.483Y-117.757
X94.483Y-120.358
X94.483Y-122.956
X94.483Y-125.557
X94.483Y-128.156
X94.483Y-130.757
X94.483Y-133.358
X94.483Y-135.956
X94.483Y-138.557
X94.483Y-141.158
X94.483Y-143.756
X94.483Y-146.357
T2
X66.04Y-89.154
X76.962Y-89.154
X82.804Y-98.552
X86.614Y-140.208
T3
X66.04Y-69.342
X66.04Y-71.882
X66.04Y-74.422
X66.04Y-76.962
X66.04Y-79.502
X66.04Y-82.042
X66.04Y-84.582
X75.692Y-80.264
X77.892Y-81.534
X79.248Y-154.178
X80.091Y-82.804
X81.788Y-154.178
X82.291Y-84.074
X84.328Y-154.178
X84.491Y-85.344
X86.691Y-86.614
X86.868Y-154.178
X88.89Y-87.884
X91.09Y-89.154
T0
M30
